<?xml version="1.0" standalone="no"?>
<!DOCTYPE svg PUBLIC "-//W3C//DTD SVG 20010904//EN"
 "http://www.w3.org/TR/2001/REC-SVG-20010904/DTD/svg10.dtd">
<svg version="1.0" xmlns="http://www.w3.org/2000/svg"
 width="661.000000pt" height="661.000000pt" viewBox="0 0 661.000000 661.000000"
 preserveAspectRatio="xMidYMid meet">
<metadata>
Created by potrace 1.14, written by Peter Selinger 2001-2017
</metadata>
<g transform="translate(0.000000,661.000000) scale(0.100000,-0.100000)"
fill="#000000" stroke="none">
<path d="M3020 5491 c-74 -10 -173 -26 -220 -36 -579 -120 -1104 -459 -1400
-904 -144 -217 -274 -540 -345 -863 l-17 -77 -61 -5 c-34 -3 -133 -10 -220
-16 -171 -12 -228 -21 -496 -81 -97 -21 -195 -39 -218 -39 l-43 0 0 -74 0 -75
37 6 c21 3 115 23 208 45 94 21 202 46 240 54 91 20 326 43 438 44 100 0 94 8
77 -110 -18 -124 -41 -505 -35 -580 26 -313 124 -560 326 -827 44 -57 75 -103
71 -103 -15 -1 -100 -86 -115 -116 -45 -89 65 -180 313 -261 79 -25 223 -61
295 -74 39 -6 86 -19 105 -29 45 -22 148 -40 232 -40 227 0 511 119 755 317
214 172 566 523 765 760 136 163 131 160 298 170 173 10 289 -9 427 -68 153
-66 275 -98 398 -106 78 -4 115 -12 165 -34 196 -83 313 -136 382 -170 85 -43
88 -44 88 -29 0 6 -6 10 -12 10 -32 0 -264 139 -322 193 -16 15 -33 27 -37 27
-5 0 -9 7 -9 16 0 10 6 14 15 10 8 -3 15 0 15 6 0 6 3 8 7 5 3 -4 12 -2 20 4
7 6 13 8 13 3 0 -5 4 -4 8 1 9 14 102 68 102 60 0 -4 7 1 16 9 8 9 21 16 29
16 7 0 15 6 18 13 3 6 5 -42 4 -108 -1 -136 4 -157 39 -180 21 -13 28 -14 41
-4 17 15 37 59 34 74 -1 5 -2 56 -2 112 1 143 32 285 57 260 5 -5 9 -140 14
-474 0 -19 47 -45 68 -39 32 10 44 54 43 149 -2 93 5 103 34 46 9 -16 13 -35
9 -41 -4 -6 -3 -8 3 -5 11 7 40 -50 35 -66 -1 -5 2 -6 7 -3 5 4 13 -4 17 -16
3 -13 15 -35 25 -49 10 -14 16 -29 12 -33 -3 -3 -1 -6 6 -6 7 0 9 -5 6 -10 -3
-6 -2 -10 4 -10 10 0 27 -38 23 -52 -1 -5 2 -8 6 -8 4 0 16 -13 25 -30 10 -17
16 -30 13 -30 -6 0 -230 83 -271 101 -16 7 -32 13 -35 14 -3 1 -18 7 -34 14
-50 20 -39 5 16 -24 117 -61 187 -101 278 -161 120 -80 134 -92 154 -131 18
-36 71 -59 113 -48 48 12 29 65 -127 355 -178 329 -330 614 -330 617 0 1 26
-10 58 -24 112 -52 216 -34 270 47 34 50 27 141 -16 210 l-30 48 25 49 c21 40
24 58 20 113 -7 114 -54 178 -147 200 -80 19 -134 6 -190 -46 -67 -62 -99
-127 -113 -228 l-11 -84 -122 232 c-67 127 -234 445 -372 707 l-250 476 29
119 c42 174 62 324 56 424 -11 174 -51 225 -229 294 -243 94 -487 154 -778
192 -192 25 -627 28 -800 5z m1720 -1325 c17 -32 29 -65 26 -73 -3 -8 -2 -12
2 -9 9 6 81 -117 85 -145 2 -9 9 -24 16 -33 12 -14 25 -38 115 -209 21 -40 33
-74 29 -84 -4 -10 -2 -14 5 -9 6 3 18 -4 26 -16 19 -26 21 -42 4 -32 -7 4 -8
3 -4 -5 4 -6 11 -9 15 -7 3 2 27 -37 51 -87 25 -51 47 -94 50 -97 10 -10 30
-50 30 -61 0 -6 7 -17 16 -26 8 -9 13 -22 10 -30 -3 -8 -1 -11 4 -8 6 3 10 1
10 -4 0 -18 3 -26 17 -39 7 -8 10 -18 7 -24 -4 -6 -3 -8 2 -5 6 3 28 -32 51
-79 23 -46 36 -81 31 -78 -6 4 -9 1 -7 -5 3 -7 8 -11 12 -9 5 2 13 -5 19 -16
8 -14 7 -21 -3 -27 -10 -6 -8 -9 9 -9 22 0 31 -27 15 -44 -4 -4 -8 -17 -9 -29
-1 -12 -5 -32 -7 -44 -4 -13 0 -24 9 -27 8 -3 14 -12 14 -19 0 -23 -155 -151
-171 -141 -5 3 -9 1 -9 -4 0 -9 -42 -30 -71 -36 -8 -2 -22 -6 -31 -10 -9 -4
-22 -8 -30 -10 -7 -1 -18 -5 -24 -9 -17 -10 -197 -28 -230 -23 -16 3 -58 8
-94 11 -35 4 -70 11 -76 16 -7 5 -16 9 -20 8 -22 -4 -55 2 -51 9 3 4 -6 8 -20
9 -14 0 -35 5 -47 11 -86 39 -122 58 -128 67 -4 5 -8 6 -8 2 0 -5 -13 0 -29 9
-17 10 -27 22 -24 27 3 6 1 7 -6 3 -10 -7 -29 4 -96 56 -88 68 -147 127 -140
139 4 5 11 7 16 4 5 -4 10 0 11 7 4 41 18 69 29 62 5 -3 9 -2 7 3 -3 12 28 80
41 87 6 4 21 29 32 57 12 27 28 49 36 49 8 0 12 4 8 9 -3 5 2 16 10 24 16 17
20 32 6 23 -5 -4 -4 5 2 19 7 14 15 25 20 25 4 0 7 7 7 15 0 8 9 24 20 35 11
11 20 22 20 25 0 3 0 12 0 20 0 8 8 15 18 15 14 0 15 2 2 10 -12 8 -13 12 -2
19 8 4 14 12 14 17 0 20 46 103 53 96 5 -4 5 -2 2 4 -8 13 11 76 25 85 6 3 9
9 8 13 -4 14 34 101 49 114 13 11 13 12 1 6 -10 -5 -8 1 5 16 11 13 15 20 8
17 -6 -4 0 23 15 60 14 38 29 70 34 71 4 2 6 8 2 13 -3 5 0 9 6 9 6 0 8 5 5
10 -4 6 -1 17 5 25 7 8 9 15 5 15 -4 0 -2 7 5 15 7 8 10 15 7 15 -3 0 3 25 14
55 10 30 19 61 19 70 0 8 5 15 11 15 5 0 7 5 4 10 -3 6 -2 10 4 10 5 0 12 -6
14 -12 4 -10 6 -10 6 -1 1 6 -4 15 -9 18 -8 5 -7 12 2 23 8 9 8 13 1 9 -7 -5
-9 0 -6 14 7 27 21 13 63 -65z m1020 -917 c0 -5 5 -7 10 -4 6 3 10 1 10 -5 0
-6 4 -9 9 -6 9 6 31 -36 31 -59 0 -8 -5 -15 -11 -15 -5 0 -7 -4 -4 -10 3 -5 2
-10 -3 -10 -5 0 -12 -8 -14 -18 -7 -26 -88 -65 -105 -50 -10 8 -12 8 -8 -3 3
-9 -9 -20 -37 -31 -23 -10 -42 -17 -44 -15 -6 6 20 106 26 102 5 -3 6 3 3 13
-2 11 2 26 11 34 8 9 12 19 8 23 -4 3 2 13 12 21 11 8 16 14 12 14 -5 0 -3 7
4 15 14 17 90 21 90 4z m141 -236 c13 -16 12 -17 -3 -4 -10 7 -18 15 -18 17 0
8 8 3 21 -13z m-98 -82 c-2 -6 1 -11 6 -11 16 0 19 -60 3 -69 -7 -4 -13 -12
-13 -17 2 -21 -61 -25 -111 -7 -82 29 -80 37 14 82 81 40 106 45 101 22z"/>
<path d="M4965 3584 c0 -29 1 -29 14 -5 8 14 7 20 -2 24 -7 3 -12 -5 -12 -19z"/>
<path d="M4185 3060 c-3 -6 1 -7 9 -4 18 7 21 14 7 14 -6 0 -13 -4 -16 -10z"/>
<path d="M4300 3050 c0 -5 0 -12 0 -15 0 -12 14 -4 16 10 1 8 -2 15 -7 15 -5
0 -9 -4 -9 -10z"/>
<path d="M4141 2881 c-8 -14 -7 -22 2 -29 10 -9 13 -4 12 19 0 34 -1 35 -14
10z"/>
<path d="M4957 1953 c-3 -4 -8 -46 -11 -93 -10 -129 -14 -140 -41 -140 -13 0
-54 -7 -91 -16 -60 -14 -70 -14 -99 0 -63 30 -156 17 -316 -45 -45 -17 -95
-44 -112 -59 -29 -25 -32 -34 -33 -91 l-1 -64 -80 -81 c-171 -172 -283 -391
-283 -556 0 -86 21 -136 64 -157 62 -29 316 28 471 106 49 26 107 55 128 65
20 10 37 23 37 29 0 6 5 7 12 3 6 -4 16 -1 22 7 6 8 30 26 53 41 45 30 163
145 163 160 0 14 69 79 140 130 85 62 106 96 89 142 -11 32 -10 41 20 108 18
40 36 79 40 87 4 8 45 28 91 46 59 23 86 38 91 53 5 13 17 22 28 22 29 0 32
13 16 61 -34 96 -118 176 -229 218 -58 21 -162 36 -169 24z m53 -17 c0 -2 -7
-7 -16 -10 -8 -3 -12 -2 -9 4 6 10 25 14 25 6z m205 -76 c10 -11 16 -20 13
-20 -3 0 -13 9 -23 20 -10 11 -16 20 -13 20 3 0 13 -9 23 -20z m76 -67 c13
-16 12 -17 -3 -4 -10 7 -18 15 -18 17 0 8 8 3 21 -13z m-156 -23 c3 -6 -1 -7
-9 -4 -18 7 -21 14 -7 14 6 0 13 -4 16 -10z m180 -20 c-3 -5 -12 -10 -18 -10
-7 0 -6 4 3 10 19 12 23 12 15 0z m-708 -385 c0 -8 -4 -12 -9 -9 -5 3 -6 10
-3 15 9 13 12 11 12 -6z m-2 -64 c3 -5 2 -12 -3 -15 -5 -3 -9 1 -9 9 0 17 3
19 12 6z m135 -275 c0 -2 -6 -9 -14 -15 -11 -9 -16 -9 -22 0 -4 7 -3 9 4 5 6
-3 13 -2 17 4 6 10 15 14 15 6z m-370 -16 c0 -5 -4 -10 -10 -10 -5 0 -10 5
-10 10 0 6 5 10 10 10 6 0 10 -4 10 -10z m280 -74 c-10 -13 -40 -12 -40 1 0 3
7 3 15 0 8 -4 17 -2 20 3 4 6 9 10 12 10 3 0 0 -6 -7 -14z m-45 -25 c3 -5 2
-12 -3 -15 -5 -3 -9 1 -9 9 0 17 3 19 12 6z m-65 -55 c0 -2 -8 -10 -17 -17
-16 -13 -17 -12 -4 4 13 16 21 21 21 13z m-250 -30 c0 -2 -8 -10 -17 -17 -16
-13 -17 -12 -4 4 13 16 21 21 21 13z m-23 -103 c0 -9 -4 -10 -14 -2 -7 6 -13
12 -13 14 0 1 6 2 13 2 8 0 14 -6 14 -14z"/>
</g>
</svg>
